<svg width="54" height="50" viewBox="0 0 54 50" xmlns="http://www.w3.org/2000/svg" xmlns:xlink="http://www.w3.org/1999/xlink"><defs><path d="M441 130l-.72-.447c-17.09-11.263-26.715-23.956-26.265-34.772.18-5.453 2.968-9.833 7.736-12.515 9.984-5.542 16.73.715 19.249 3.755 2.519-3.13 9.265-9.386 19.25-3.755 4.767 2.682 7.555 7.151 7.735 12.515.45 10.816-9.175 23.509-26.265 34.862L441 130z" id="a"/></defs><g transform="translate(-414 -80)" fill-rule="nonzero" fill="none"><use fill="#FFE7EE" fill-rule="evenodd" xlink:href="#a"/><path stroke="#F23030" stroke-width="2" d="M441.528 129.15L441 130l-.445-.896.72-.357.445.896-.554-.833.052-.035c16.842-11.2 26.198-23.608 25.767-33.96-.167-4.996-2.746-9.157-7.227-11.678-7.552-4.26-13.598-1.931-17.979 3.51l-.768.954-.781-.942c-4.473-5.398-10.456-7.702-17.989-3.521-4.513 2.538-7.06 6.627-7.227 11.684-.43 10.366 8.962 22.788 25.794 33.882l.72.446z"/></g></svg>