<svg width="48" height="48" viewBox="0 0 48 48" xmlns="http://www.w3.org/2000/svg" xmlns:xlink="http://www.w3.org/1999/xlink"><defs><linearGradient x1="50%" y1="0%" x2="50%" y2="97.877%" id="a"><stop stop-color="#FFCE92" offset="0%"/><stop stop-color="#FF7772" offset="100%"/></linearGradient><linearGradient x1="50%" y1="75.586%" x2="50%" y2="0%" id="d"><stop stop-color="#FFF" offset="0%"/><stop stop-color="#FFF1F3" offset="100%"/></linearGradient><path d="M26.562 34.115c-1.415-.864-3.715-.86-5.124 0l-6.044 3.691c-1.415.865-2.248.251-1.865-1.355l1.643-6.889c.385-1.612-.33-3.799-1.584-4.873L8.21 20.082c-1.26-1.079-.933-2.061.713-2.193l7.059-.566c1.653-.133 3.511-1.488 4.145-3.012l2.72-6.539c.637-1.53 1.672-1.524 2.306 0l2.72 6.539c.636 1.53 2.5 2.88 4.145 3.012l7.06.566c1.652.132 1.966 1.119.712 2.193l-5.378 4.607c-1.26 1.079-1.967 3.267-1.584 4.873l1.643 6.889c.385 1.613-.456 2.216-1.865 1.355l-6.044-3.691z" id="c"/><filter x="-15.8%" y="-15.8%" width="131.6%" height="131.6%" filterUnits="objectBoundingBox" id="b"><feOffset in="SourceAlpha" result="shadowOffsetOuter1"/><feGaussianBlur stdDeviation="2" in="shadowOffsetOuter1" result="shadowBlurOuter1"/><feColorMatrix values="0 0 0 0 0.603921569 0 0 0 0 0.266666667 0 0 0 0 0.341176471 0 0 0 0.5 0" in="shadowBlurOuter1"/></filter></defs><g fill="none" fill-rule="evenodd"><circle fill="url(#a)" cx="24" cy="24" r="24"/><use fill="#000" filter="url(#b)" xlink:href="#c"/><use fill="url(#d)" xlink:href="#c"/></g></svg>