<svg width="48" height="48" viewBox="0 0 48 48" xmlns="http://www.w3.org/2000/svg" xmlns:xlink="http://www.w3.org/1999/xlink"><defs><linearGradient x1="50%" y1="0%" x2="50%" y2="97.877%" id="a"><stop stop-color="#92C0FF" offset="0%"/><stop stop-color="#7278FF" offset="100%"/></linearGradient><linearGradient x1="50%" y1="75.586%" x2="50%" y2="0%" id="d"><stop stop-color="#FFF" offset="0%"/><stop stop-color="#F1F1FF" offset="100%"/></linearGradient><path d="M19.333 28.667v-3.59l13.659-13.659a2.005 2.005 0 0 1 2.837 0l.752.753a2 2 0 0 1 0 2.837L22.924 28.667h-3.59z" id="c"/><filter x="-32.1%" y="-32.1%" width="164.3%" height="164.3%" filterUnits="objectBoundingBox" id="b"><feOffset in="SourceAlpha" result="shadowOffsetOuter1"/><feGaussianBlur stdDeviation="2" in="shadowOffsetOuter1" result="shadowBlurOuter1"/><feColorMatrix values="0 0 0 0 0.266666667 0 0 0 0 0.366044597 0 0 0 0 0.603921569 0 0 0 0.5 0" in="shadowBlurOuter1"/></filter><path d="M14.761 36.829h19.045a2.04 2.04 0 1 0 0-4.081H12.04a2.04 2.04 0 1 1 0-4.081h3.401" id="f"/><filter x="-27.1%" y="-85.8%" width="154.2%" height="271.5%" filterUnits="objectBoundingBox" id="e"><feMorphology radius="1" operator="dilate" in="SourceAlpha" result="shadowSpreadOuter1"/><feOffset in="shadowSpreadOuter1" result="shadowOffsetOuter1"/><feMorphology radius="1" in="SourceAlpha" result="shadowInner"/><feOffset in="shadowInner" result="shadowInner"/><feComposite in="shadowOffsetOuter1" in2="shadowInner" operator="out" result="shadowOffsetOuter1"/><feGaussianBlur stdDeviation="2" in="shadowOffsetOuter1" result="shadowBlurOuter1"/><feColorMatrix values="0 0 0 0 0.266666667 0 0 0 0 0.353615196 0 0 0 0 0.603921569 0 0 0 0.5 0" in="shadowBlurOuter1"/></filter></defs><g fill="none" fill-rule="evenodd"><circle fill="url(#a)" cx="24" cy="24" r="24"/><use fill="#000" filter="url(#b)" xlink:href="#c"/><use fill="url(#d)" xlink:href="#c"/><g stroke-linecap="round" stroke-linejoin="round"><use fill="#000" filter="url(#e)" xlink:href="#f"/><use stroke="#FFF" stroke-width="2" xlink:href="#f"/></g></g></svg>