<svg width="34" height="34" viewBox="0 0 34 34" xmlns="http://www.w3.org/2000/svg"><defs><linearGradient x1="50%" y1="0%" x2="50%" y2="97.877%" id="a"><stop stop-color="#FF9793" offset="0%"/><stop stop-color="#FF5F83" offset="100%"/></linearGradient></defs><g fill="none" fill-rule="evenodd"><circle fill="url(#a)" cx="17" cy="17" r="17"/><path d="M21.694 8c-1.8 0-3.505.77-4.694 2.093A6.32 6.32 0 0 0 12.307 8 6.313 6.313 0 0 0 6 14.305c0 1.422.442 2.613 1.435 3.856.43.543.916 1.04 1.43 1.565l.356.368a215.722 215.722 0 0 0 3.152 3.17c.518.514 1.036 1.036 1.55 1.55.521.523 1.042 1.06 1.564 1.58l1.116 1.15c.11.108.258.239.413.239h.001c.155 0 .304-.131.413-.242.408-.409.815-.888 1.224-1.294a672.41 672.41 0 0 0 2.229-2.239c.975-.98 1.95-1.961 2.931-2.936.211-.21.427-.42.645-.628C26.119 18.84 28 17.017 28 14.305A6.313 6.313 0 0 0 21.694 8" fill="#FFF"/></g></svg>