<svg width="48" height="48" viewBox="0 0 48 48" xmlns="http://www.w3.org/2000/svg" xmlns:xlink="http://www.w3.org/1999/xlink"><defs><linearGradient x1="50%" y1="0%" x2="50%" y2="100%" id="a"><stop stop-color="#ADDF54" offset="0%"/><stop stop-color="#5FA841" offset="100%"/></linearGradient><linearGradient x1="50%" y1="75.586%" x2="50%" y2="0%" id="d"><stop stop-color="#FFF" offset="0%"/><stop stop-color="#F1FFF5" offset="100%"/></linearGradient><path d="M25.744 15.167a7.03 7.03 0 0 1 10.153 0c2.804 2.889 2.804 7.573 0 10.462L24 37.89 12.103 25.63c-2.804-2.889-2.804-7.573 0-10.462a7.03 7.03 0 0 1 10.153 0A7.408 7.408 0 0 1 24 18.083a7.408 7.408 0 0 1 1.744-2.916z" id="c"/><filter x="-21.4%" y="-24.1%" width="142.9%" height="148.2%" filterUnits="objectBoundingBox" id="b"><feOffset in="SourceAlpha" result="shadowOffsetOuter1"/><feGaussianBlur stdDeviation="2" in="shadowOffsetOuter1" result="shadowBlurOuter1"/><feColorMatrix values="0 0 0 0 0.266666667 0 0 0 0 0.603921569 0 0 0 0 0.278981511 0 0 0 0.5 0" in="shadowBlurOuter1"/></filter></defs><g fill="none" fill-rule="evenodd"><circle fill="url(#a)" cx="24" cy="24" r="24"/><use fill="#000" filter="url(#b)" xlink:href="#c"/><use fill="url(#d)" xlink:href="#c"/></g></svg>