<svg width="52" height="52" viewBox="0 0 52 52" xmlns="http://www.w3.org/2000/svg" xmlns:xlink="http://www.w3.org/1999/xlink"><defs><path d="M26 0C15.708 0 6.814 5.98 2.6 14.655V4.86a.96.96 0 0 0-.96-.959H.96a.96.96 0 0 0-.96.96v11.08c0 .111.02.217.054.316a.97.97 0 0 0-.054.319v.65c0 .539.437.975.975.975h11.05a.975.975 0 0 0 .975-.975v-.65a.975.975 0 0 0-.975-.975H5.032c3.83-7.705 11.78-13 20.968-13 12.923 0 23.4 10.477 23.4 23.4 0 12.924-10.477 23.4-23.4 23.4C13.077 49.4 2.6 38.924 2.6 26H0c0 14.36 11.64 26 26 26s26-11.64 26-26S40.36 0 26 0zm-1.3 27.625c0 .538.437.975.975.975h11.05a.975.975 0 0 0 .975-.975v-.65a.975.975 0 0 0-.975-.975H27.3V13.96a.96.96 0 0 0-.96-.96h-.68a.96.96 0 0 0-.96.96v12.38c0 .111.02.217.054.316a.971.971 0 0 0-.054.32v.65z" id="a"/></defs><g fill="none" fill-rule="evenodd"><circle fill="#FFE7EE" cx="26" cy="26" r="25"/><g fill-rule="nonzero"><use fill="#FFE7EE" fill-rule="evenodd" xlink:href="#a"/><path stroke="#F23030" stroke-width="2.88" d="M3.895 15.284L1.16 20.916V4.859a.48.48 0 0 0 .48.481H.96a.478.478 0 0 0 .48-.48v10.997l.139.398-.139.4v.57a.465.465 0 0 0-.465-.465h11.05a.464.464 0 0 0-.465.465v-.65a.464.464 0 0 0 .465.465H2.709l1.034-2.08A24.837 24.837 0 0 1 26 1.16c13.719 0 24.84 11.121 24.84 24.84S39.719 50.84 26 50.84c-13.235 0-24.053-10.351-24.799-23.4A25.205 25.205 0 0 1 1.16 26l1.44 1.44H0L1.44 26a25.067 25.067 0 0 0 .042 1.44C2.227 40.334 12.919 50.56 26 50.56c13.564 0 24.56-10.996 24.56-24.56C50.56 12.436 39.564 1.44 26 1.44A24.558 24.558 0 0 0 3.895 15.284zM26.14 27.625v-.57l.139-.4-.139-.398V13.959a.48.48 0 0 1-.48.481h.68a.479.479 0 0 1-.48-.48v13.48h10.865a.464.464 0 0 1-.465-.465v.65a.464.464 0 0 1 .465-.465h-11.05a.464.464 0 0 1 .465.465z"/></g></g></svg>