<svg width="48" height="48" viewBox="0 0 48 48" xmlns="http://www.w3.org/2000/svg" xmlns:xlink="http://www.w3.org/1999/xlink"><defs><linearGradient x1="50%" y1="0%" x2="50%" y2="97.877%" id="a"><stop stop-color="#FFB0AD" offset="0%"/><stop stop-color="#FF7772" offset="100%"/></linearGradient><linearGradient x1="50%" y1="75.586%" x2="50%" y2="0%" id="d"><stop stop-color="#FFF" offset="0%"/><stop stop-color="#FFF1F3" offset="100%"/></linearGradient><path d="M10.992 14C9.892 14 9 14.898 9 15.99v16.02c0 1.099.898 1.99 1.992 1.99h26.016c1.1 0 1.992-.898 1.992-1.99V15.99c0-1.099-.898-1.99-1.992-1.99H10.992z" id="c"/><filter x="-20%" y="-30%" width="140%" height="160%" filterUnits="objectBoundingBox" id="b"><feOffset in="SourceAlpha" result="shadowOffsetOuter1"/><feGaussianBlur stdDeviation="2" in="shadowOffsetOuter1" result="shadowBlurOuter1"/><feColorMatrix values="0 0 0 0 0.603921569 0 0 0 0 0.266666667 0 0 0 0 0.341176471 0 0 0 0.5 0" in="shadowBlurOuter1"/></filter></defs><g fill="none" fill-rule="evenodd"><circle fill="url(#a)" cx="24" cy="24" r="24"/><use fill="#000" filter="url(#b)" xlink:href="#c"/><use fill="url(#d)" xlink:href="#c"/><path stroke="#FF908C" stroke-width="2" stroke-linecap="round" stroke-linejoin="round" d="M13 18h8v12h-8zm13 1h8m-8 5h8m-8 5h8"/></g></svg>