<?xml version="1.0" encoding="UTF-8"?>
<svg width="44px" height="38px" viewBox="0 0 44 38" version="1.1" xmlns="http://www.w3.org/2000/svg" xmlns:xlink="http://www.w3.org/1999/xlink">
    <!-- Generator: Sketch 46.1 (44463) - http://www.bohemiancoding.com/sketch -->
    <title>dianpu</title>
    <desc>Created with Sketch.</desc>
    <defs></defs>
    <g id="微信公众号" stroke="none" stroke-width="1" fill="none" fill-rule="evenodd">
        <g id="切图" transform="translate(-27.000000, -86.000000)">
            <g id="dianpu" transform="translate(27.000000, 86.000000)">
                <path d="M1.55523854,11.3328838 C1.20134042,11.9757085 1,12.7143414 1,13.5 C1,15.9852814 3.01471863,18 5.5,18 C7.81627683,18 9.72381347,16.2499752 9.97253561,14 L12.0274644,14 C12.2761865,16.2499752 14.1837232,18 16.5,18 C18.8162768,18 20.7238135,16.2499752 20.9725356,14 L23.0274644,14 C23.2761865,16.2499752 25.1837232,18 27.5,18 C29.8162768,18 31.7238135,16.2499752 31.9725356,14 L34.0274644,14 C34.2761865,16.2499752 36.1837232,18 38.5,18 C40.9852814,18 43,15.9852814 43,13.5 C43,12.7153765 42.7991897,11.9776547 42.4461593,11.3354248 L39.3558651,1.26709864 C39.1480031,0.566156149 38.4573406,0 37.8117145,0 L6.18887882,0 C5.55331326,0 4.85225306,0.567299383 4.64473098,1.26709864 L1.55523854,11.3328838 Z" id="Combined-Shape" fill="#C2C2C3"></path>
                <path d="M41,36 L41,19.5361508 C40.2304079,19.857086 39.3859009,20.0343141 38.5,20.0343141 C36.1842332,20.0343141 34.1513157,18.8232919 33,17 C31.8486843,18.8232919 29.8157668,20.0343141 27.5,20.0343141 C25.1842332,20.0343141 23.1513157,18.8232919 22,17 C20.8486843,18.8232919 18.8157668,20.0343141 16.5,20.0343141 C14.1842332,20.0343141 12.1513157,18.8232919 11,17 C9.8486843,18.8232919 7.81576684,20.0343141 5.5,20.0343141 C4.61409912,20.0343141 3.76959209,19.857086 3,19.5361508 L3,36 L1,36 L1,36 C0.44771525,36 -6.76353751e-17,36.4477153 0,37 C6.76353751e-17,37.5522847 0.44771525,38 1,38 L1,38 L43,38 C43.5522847,38 44,37.5522847 44,37 C44,36.4477153 43.5522847,36 43,36 L41,36 Z" id="Combined-Shape" fill="#C2C2C3"></path>
                <path d="M12.5786176,26.1080294 C13.0603824,25.6262647 13.0603824,24.8430882 12.5786176,24.3613235 C12.0968529,23.8795588 11.3136765,23.8795588 10.8319118,24.3613235 L8.36132353,26.8319118 C7.87955882,27.3136765 7.87955882,28.0968529 8.36132353,28.5786176 C8.60344118,28.8182647 8.91967647,28.9393235 9.23344118,28.9393235 C9.54967647,28.9393235 9.86591176,28.8207353 10.1080294,28.5786176 L12.5786176,26.1080294 L12.5786176,26.1080294 Z" id="Shape" fill="#FFFFFF"></path>
                <path d="M20.5197941,26.1080294 C21.0015588,25.6262647 21.0015588,24.8430882 20.5197941,24.3613235 C20.0380294,23.8795588 19.2548529,23.8795588 18.7730882,24.3613235 L11.3613235,31.7730882 C10.8795588,32.2548529 10.8795588,33.0380294 11.3613235,33.5197941 C11.6034412,33.7594412 11.9196765,33.8805 12.2334412,33.8805 C12.5496765,33.8805 12.8659118,33.7619118 13.1080294,33.5197941 L20.5197941,26.1080294 L20.5197941,26.1080294 Z" id="Shape" fill="#FFFFFF"></path>
                <path d="M20.8319118,29.3613235 L18.3613235,31.8319118 C17.8795588,32.3136765 17.8795588,33.0968529 18.3613235,33.5786176 C18.6034412,33.8182647 18.9196765,33.9393235 19.2359118,33.9393235 C19.5496765,33.9393235 19.8659118,33.8207353 20.1080294,33.5786176 L22.5786176,31.1080294 C23.0603824,30.6262647 23.0603824,29.8430882 22.5786176,29.3613235 C22.0968529,28.8795588 21.3136765,28.8795588 20.8319118,29.3613235" id="Shape" fill="#FFFFFF"></path>
            </g>
        </g>
    </g>
</svg>