<?xml version="1.0" encoding="UTF-8"?>
<svg width="44px" height="38px" viewBox="0 0 44 38" version="1.1" xmlns="http://www.w3.org/2000/svg" xmlns:xlink="http://www.w3.org/1999/xlink">
    <!-- Generator: Sketch 46.1 (44463) - http://www.bohemiancoding.com/sketch -->
    <title>dianpu-xuanzhong</title>
    <desc>Created with Sketch.</desc>
    <defs></defs>
    <g id="微信公众号" stroke="none" stroke-width="1" fill="none" fill-rule="evenodd">
        <g id="切图" transform="translate(-27.000000, -24.000000)">
            <g id="dianpu-xuanzhong" transform="translate(27.000000, 24.000000)">
                <path d="M1.53968615,11.2751891 C1.18932701,11.9147412 0.99,12.6496139 0.99,13.4312727 C0.99,15.9039018 2.98457144,17.9083636 5.445,17.9083636 C7.73811406,17.9083636 9.62657533,16.1672481 9.87281025,13.9287273 L11.9071897,13.9287273 C12.1534247,16.1672481 14.0418859,17.9083636 16.335,17.9083636 C18.6281141,17.9083636 20.5165753,16.1672481 20.7628103,13.9287273 L22.7971897,13.9287273 C23.0434247,16.1672481 24.9318859,17.9083636 27.225,17.9083636 C29.5181141,17.9083636 31.4065753,16.1672481 31.6528103,13.9287273 L33.6871897,13.9287273 C33.9334247,16.1672481 35.8218859,17.9083636 38.115,17.9083636 C40.5754286,17.9083636 42.57,15.9039018 42.57,13.4312727 C42.57,12.6506436 42.3711978,11.9166775 42.0216978,11.2777172 L38.9623064,1.26064795 C38.7565231,0.563273899 38.0727672,0 37.4335973,0 L6.12699003,0 C5.49778013,0 4.80373053,0.564411313 4.59828367,1.26064795 L1.53968615,11.2751891 Z" id="Combined-Shape" fill="#F23030"></path>
                <path d="M40.59,35.8167273 L40.59,19.436694 C39.8281038,19.7559953 38.9920419,19.9323212 38.115,19.9323212 C35.8223908,19.9323212 33.8098025,18.7274643 32.67,16.9134545 C31.5301975,18.7274643 29.5176092,19.9323212 27.225,19.9323212 C24.9323908,19.9323212 22.9198025,18.7274643 21.78,16.9134545 C20.6401975,18.7274643 18.6276092,19.9323212 16.335,19.9323212 C14.0423908,19.9323212 12.0298025,18.7274643 10.89,16.9134545 C9.75019746,18.7274643 7.73760917,19.9323212 5.445,19.9323212 C4.56795813,19.9323212 3.73189617,19.7559953 2.97,19.436694 L2.97,35.8167273 L0.994909091,35.8167273 L0.994909091,35.8167273 C0.445435973,35.8167273 -6.72910496e-17,36.2621632 0,36.8116364 C6.72910496e-17,37.3611095 0.445435973,37.8065455 0.994909091,37.8065455 L0.994909091,37.8065455 L42.5650909,37.8065455 C43.114564,37.8065455 43.56,37.3611095 43.56,36.8116364 C43.56,36.2621632 43.114564,35.8167273 42.5650909,35.8167273 L42.5650909,35.8167273 L40.59,35.8167273 Z" id="Combined-Shape" fill="#F23030"></path>
                <path d="M12.4528315,25.9751158 C12.9297785,25.4958037 12.9297785,24.7166143 12.4528315,24.2373022 C11.9758844,23.7579902 11.2005397,23.7579902 10.7235926,24.2373022 L8.27771029,26.6953129 C7.80076324,27.174625 7.80076324,27.9538144 8.27771029,28.4331265 C8.51740676,28.6715535 8.83047971,28.7919961 9.14110676,28.7919961 C9.45417971,28.7919961 9.76725265,28.6740116 10.0069491,28.4331265 L12.4528315,25.9751158 L12.4528315,25.9751158 Z" id="Shape" fill="#FFFFFF"></path>
                <path d="M20.3145962,25.9751158 C20.7915432,25.4958037 20.7915432,24.7166143 20.3145962,24.2373022 C19.8376491,23.7579902 19.0623044,23.7579902 18.5853574,24.2373022 L11.2477103,31.6113343 C10.7707632,32.0906464 10.7707632,32.8698358 11.2477103,33.3491479 C11.4874068,33.5875749 11.8004797,33.7080175 12.1111068,33.7080175 C12.4241797,33.7080175 12.7372526,33.5900329 12.9769491,33.3491479 L20.3145962,25.9751158 L20.3145962,25.9751158 Z" id="Shape" fill="#FFFFFF"></path>
                <path d="M20.6235926,29.2118477 L18.1777103,31.6698584 C17.7007632,32.1491705 17.7007632,32.9283599 18.1777103,33.407672 C18.4174068,33.646099 18.7304797,33.7665415 19.0435526,33.7665415 C19.3541797,33.7665415 19.6672526,33.648557 19.9069491,33.407672 L22.3528315,30.9496613 C22.8297785,30.4703492 22.8297785,29.6911598 22.3528315,29.2118477 C21.8758844,28.7325356 21.1005397,28.7325356 20.6235926,29.2118477" id="Shape" fill="#FFFFFF"></path>
            </g>
        </g>
    </g>
</svg>