<?xml version="1.0" encoding="UTF-8"?>
<svg width="26px" height="33px" viewBox="0 0 26 33" version="1.1" xmlns="http://www.w3.org/2000/svg" xmlns:xlink="http://www.w3.org/1999/xlink">
    <!-- Generator: Sketch 46.1 (44463) - http://www.bohemiancoding.com/sketch -->
    <title>dizhi</title>
    <desc>Created with Sketch.</desc>
    <defs></defs>
    <g id="微信公众号" stroke="none" stroke-width="1" fill="none" fill-rule="evenodd">
        <g id="切图" transform="translate(-694.000000, -35.000000)" fill-rule="nonzero" fill="#CCCCCC">
            <path d="M707,35 C699.8197,35 694,40.8208609 694,48 C694,55.181461 702.622165,67.4094481 707,67.4094481 C711.417307,67.4094481 720,55.181461 720,48 C720,40.8196999 714.1803,35 707,35 L707,35 Z M707,54.5174138 C703.401143,54.5174138 700.483747,51.597696 700.483747,48 C700.483747,44.402304 703.401143,41.4837471 707,41.4837471 C710.598857,41.4837471 713.516253,44.4011431 713.516253,47.9988391 C713.516253,51.5965351 710.598857,54.5174138 707,54.5174138 L707,54.5174138 Z" id="dizhi"></path>
        </g>
    </g>
</svg>