<?xml version="1.0" encoding="UTF-8"?>
<svg width="40px" height="40px" viewBox="0 0 40 40" version="1.1" xmlns="http://www.w3.org/2000/svg" xmlns:xlink="http://www.w3.org/1999/xlink">
    <!-- Generator: Sketch 46.1 (44463) - http://www.bohemiancoding.com/sketch -->
    <title>shanchuhaoma</title>
    <desc>Created with Sketch.</desc>
    <defs></defs>
    <g id="微信公众号" stroke="none" stroke-width="1" fill="none" fill-rule="evenodd">
        <g id="切图" transform="translate(-533.000000, -176.000000)" fill="#9B9B9B">
            <path d="M553,194.65313 L546.940743,188.593872 C546.56831,188.22144 545.964143,188.220287 545.592215,188.592215 C545.217694,188.966736 545.221029,189.567899 545.593872,189.940743 L551.65313,196 L545.50871,202.14442 C545.18222,202.47091 545.181516,202.997087 545.505618,203.321189 L545.678811,203.494382 C545.999552,203.815122 546.529771,203.817099 546.85558,203.49129 L553,197.34687 L559.059257,203.406128 C559.43169,203.77856 560.035857,203.779713 560.407785,203.407785 C560.782306,203.033264 560.778971,202.432101 560.406128,202.059257 L554.34687,196 L560.49129,189.85558 C560.81778,189.52909 560.818484,189.002913 560.494382,188.678811 L560.321189,188.505618 C560.000448,188.184878 559.470229,188.182901 559.14442,188.50871 L553,194.65313 Z M538.857864,210.142136 C531.047379,202.33165 531.047379,189.66835 538.857864,181.857864 C546.66835,174.047379 559.33165,174.047379 567.142136,181.857864 C574.952621,189.66835 574.952621,202.33165 567.142136,210.142136 C559.33165,217.952621 546.66835,217.952621 538.857864,210.142136 Z" id="shanchuhaoma"></path>
        </g>
    </g>
</svg>