<?xml version="1.0" encoding="UTF-8"?>
<svg width="50px" height="48px" viewBox="0 0 50 48" version="1.1" xmlns="http://www.w3.org/2000/svg" xmlns:xlink="http://www.w3.org/1999/xlink">
    <!-- Generator: Sketch 46.1 (44463) - http://www.bohemiancoding.com/sketch -->
    <title>shiyi</title>
    <desc>Created with Sketch.</desc>
    <defs></defs>
    <g id="微信公众号" stroke="none" stroke-width="1" fill="none" fill-rule="evenodd">
        <g id="切图" transform="translate(-111.000000, -81.000000)">
            <g id="shiyi" transform="translate(112.000000, 82.000000)">
                <path d="M24,11.0769231 C27.0588078,11.0769231 29.5384615,8.59726938 29.5384615,5.53846154 C29.5384615,2.47965369 27.0588078,0 24,0 C20.9411922,0 18.4615385,2.47965369 18.4615385,5.53846154" id="Oval-10" stroke="#C2C2C3" stroke-width="2" stroke-linecap="round" stroke-linejoin="round"></path>
                <path d="M24,11.4065934 L24,15.3626374" id="Line" stroke="#C2C2C3" stroke-width="2" stroke-linecap="round"></path>
                <path d="M48,36 L48,36 C48,37.7843046 46.497526,39.2307692 44.6438111,39.2307692 L3.35618892,39.2307692 C1.50261696,39.2307692 0,37.7806739 0,36 L0,36 L0,36" id="Rectangle-27" stroke="#C2C2C3" stroke-width="2" stroke-linecap="round" stroke-linejoin="round"></path>
                <path d="M48,42.4615385 L48,42.4615385 C48,44.245843 46.497526,45.6923077 44.6438111,45.6923077 L3.35618892,45.6923077 C1.50261696,45.6923077 0,44.2422123 0,42.4615385 L0,42.4615385 L0,42.4615385" id="Rectangle-27-Copy" stroke="#C2C2C3" stroke-width="2" stroke-linecap="round" stroke-linejoin="round"></path>
                <path d="M2.66930324,25.7447555 C1.12883233,26.1872255 0,27.608965 0,29.2944905 C0,31.3295463 1.65062666,32.9867982 3.68677783,32.9867982 L44.3132222,32.9867982 C46.3477314,32.9867982 48,31.3336957 48,29.2944905 C48,27.5750573 46.8216705,26.1253264 45.2280604,25.7169994 L24.9063872,15.8867839 C24.4081575,15.6457749 23.5955124,15.6435845 23.0965518,15.884435 L2.66930324,25.7447555 Z" id="Combined-Shape" fill="#C2C2C3"></path>
            </g>
        </g>
    </g>
</svg>