<?xml version="1.0" encoding="UTF-8"?>
<svg width="22px" height="34px" viewBox="0 0 22 34" version="1.1" xmlns="http://www.w3.org/2000/svg" xmlns:xlink="http://www.w3.org/1999/xlink">
    <!-- Generator: Sketch 46.1 (44463) - http://www.bohemiancoding.com/sketch -->
    <title>shouji</title>
    <desc>Created with Sketch.</desc>
    <defs></defs>
    <g id="微信公众号" stroke="none" stroke-width="1" fill="none" fill-rule="evenodd">
        <g id="切图" transform="translate(-659.000000, -33.000000)" fill-rule="nonzero" fill="#CCCCCC">
            <path d="M681,62.115727 L681,37.3347181 C681,36.7341246 680.882493,36.1727003 680.634421,35.6504451 C680.399407,35.1281899 680.072997,34.6712166 679.655193,34.2664688 C679.237389,33.8747774 678.741246,33.5614243 678.179822,33.3394659 C677.618398,33.1175074 677.017804,33 676.364985,33 L663.635015,33 C662.995252,33 662.381602,33.1175074 661.820178,33.3394659 C661.258754,33.5614243 660.762611,33.8747774 660.344807,34.2664688 C659.927003,34.6581602 659.600593,35.1151335 659.365579,35.6504451 C659.130564,36.1727003 659,36.7341246 659,37.3347181 L659,62.115727 C659,62.7163205 659.117507,63.2646884 659.365579,63.7869436 C659.600593,64.2961424 659.927003,64.7531157 660.344807,65.1448071 C660.762611,65.5364985 661.258754,65.8498516 661.820178,66.0718101 C662.381602,66.2937685 662.982196,66.411276 663.635015,66.411276 L676.364985,66.411276 C677.004748,66.411276 677.618398,66.2937685 678.179822,66.0718101 C678.741246,65.8498516 679.237389,65.5364985 679.655193,65.1448071 C680.072997,64.7531157 680.399407,64.2961424 680.634421,63.7869436 C680.882493,63.2777448 681,62.7163205 681,62.115727 L681,62.115727 Z M667.356083,35.5590504 C667.486647,35.4545994 667.617211,35.4023739 667.734718,35.4023739 L672.291395,35.4023739 C672.435015,35.4023739 672.565579,35.4545994 672.683086,35.5590504 C672.800593,35.6635015 672.865875,35.820178 672.865875,36.0029674 C672.865875,36.1857567 672.800593,36.3424332 672.683086,36.4468843 C672.565579,36.5513353 672.435015,36.6035608 672.291395,36.6035608 L667.734718,36.6035608 C667.591098,36.6035608 667.460534,36.5513353 667.343027,36.4468843 C667.225519,36.3424332 667.160237,36.1857567 667.160237,36.0029674 C667.147181,35.820178 667.225519,35.6765579 667.356083,35.5590504 Z M671.312166,64.5442136 C670.946588,64.9097923 670.515727,65.105638 669.980415,65.105638 C669.471217,65.105638 669.040356,64.9228487 668.674777,64.5442136 C668.309199,64.178635 668.113353,63.7347181 668.113353,63.2385757 C668.113353,62.7163205 668.296142,62.2724036 668.674777,61.9068249 C669.040356,61.5412463 669.484273,61.3715134 669.980415,61.3715134 C670.502671,61.3715134 670.946588,61.5543027 671.312166,61.9068249 C671.677745,62.2724036 671.847478,62.7032641 671.847478,63.2385757 C671.847478,63.7347181 671.677745,64.1655786 671.312166,64.5442136 Z M678.088427,60.3661721 L661.88546,60.3661721 L661.88546,39.0581602 L678.101484,39.0581602 L678.088427,60.3661721 Z" id="shouji"></path>
        </g>
    </g>
</svg>