<?xml version="1.0" encoding="UTF-8"?>
<svg width="48px" height="48px" viewBox="0 0 48 48" version="1.1" xmlns="http://www.w3.org/2000/svg" xmlns:xlink="http://www.w3.org/1999/xlink">
    <!-- Generator: Sketch 46.1 (44463) - http://www.bohemiancoding.com/sketch -->
    <title>shoujihao</title>
    <desc>Created with Sketch.</desc>
    <defs>
        <linearGradient x1="50%" y1="0%" x2="50%" y2="100%" id="linearGradient-1">
            <stop stop-color="#FDE078" offset="0%"></stop>
            <stop stop-color="#FA803B" offset="100%"></stop>
        </linearGradient>
        <linearGradient x1="50%" y1="0%" x2="50%" y2="100%" id="linearGradient-2">
            <stop stop-color="#FFFCF0" offset="0%"></stop>
            <stop stop-color="#FFFFFF" offset="100%"></stop>
        </linearGradient>
        <path d="M35,36.115727 L35,11.3347181 C35,10.7341246 34.8824926,10.1727003 34.6344214,9.6504451 C34.3994065,9.12818991 34.072997,8.67121662 33.6551929,8.26646884 C33.2373887,7.87477745 32.7412463,7.56142433 32.179822,7.33946588 C31.6183976,7.11750742 31.0178042,7 30.3649852,7 L17.6350148,7 C16.9952522,7 16.3816024,7.11750742 15.820178,7.33946588 C15.2587537,7.56142433 14.7626113,7.87477745 14.3448071,8.26646884 C13.927003,8.65816024 13.6005935,9.11513353 13.3655786,9.6504451 C13.1305638,10.1727003 13,10.7341246 13,11.3347181 L13,36.115727 C13,36.7163205 13.1175074,37.2646884 13.3655786,37.7869436 C13.6005935,38.2961424 13.927003,38.7531157 14.3448071,39.1448071 C14.7626113,39.5364985 15.2587537,39.8498516 15.820178,40.0718101 C16.3816024,40.2937685 16.9821958,40.411276 17.6350148,40.411276 L30.3649852,40.411276 C31.0047478,40.411276 31.6183976,40.2937685 32.179822,40.0718101 C32.7412463,39.8498516 33.2373887,39.5364985 33.6551929,39.1448071 C34.072997,38.7531157 34.3994065,38.2961424 34.6344214,37.7869436 C34.8824926,37.2777448 35,36.7163205 35,36.115727 L35,36.115727 Z M21.3560831,9.55905045 C21.4866469,9.45459941 21.6172107,9.40237389 21.7347181,9.40237389 L26.2913947,9.40237389 C26.4350148,9.40237389 26.5655786,9.45459941 26.6830861,9.55905045 C26.8005935,9.66350148 26.8658754,9.82017804 26.8658754,10.0029674 C26.8658754,10.1857567 26.8005935,10.3424332 26.6830861,10.4468843 C26.5655786,10.5513353 26.4350148,10.6035608 26.2913947,10.6035608 L21.7347181,10.6035608 C21.5910979,10.6035608 21.4605341,10.5513353 21.3430267,10.4468843 C21.2255193,10.3424332 21.1602374,10.1857567 21.1602374,10.0029674 C21.147181,9.82017804 21.2255193,9.67655786 21.3560831,9.55905045 Z M25.3121662,38.5442136 C24.9465875,38.9097923 24.515727,39.105638 23.9804154,39.105638 C23.4712166,39.105638 23.0403561,38.9228487 22.6747774,38.5442136 C22.3091988,38.178635 22.1133531,37.7347181 22.1133531,37.2385757 C22.1133531,36.7163205 22.2961424,36.2724036 22.6747774,35.9068249 C23.0403561,35.5412463 23.484273,35.3715134 23.9804154,35.3715134 C24.5026706,35.3715134 24.9465875,35.5543027 25.3121662,35.9068249 C25.6777448,36.2724036 25.8474777,36.7032641 25.8474777,37.2385757 C25.8474777,37.7347181 25.6777448,38.1655786 25.3121662,38.5442136 Z M32.0884273,34.3661721 L15.8854599,34.3661721 L15.8854599,13.0581602 L32.1014837,13.0581602 L32.0884273,34.3661721 Z" id="path-3"></path>
        <filter x="-27.3%" y="-18.0%" width="154.5%" height="135.9%" filterUnits="objectBoundingBox" id="filter-4">
            <feOffset dx="0" dy="0" in="SourceAlpha" result="shadowOffsetOuter1"></feOffset>
            <feGaussianBlur stdDeviation="2" in="shadowOffsetOuter1" result="shadowBlurOuter1"></feGaussianBlur>
            <feColorMatrix values="0 0 0 0 1   0 0 0 0 0.575133379   0 0 0 0 0.167238794  0 0 0 0.5 0" type="matrix" in="shadowBlurOuter1"></feColorMatrix>
        </filter>
    </defs>
    <g id="微信公众号" stroke="none" stroke-width="1" fill="none" fill-rule="evenodd">
        <g id="切图" transform="translate(-551.000000, -76.000000)">
            <g id="shoujihao" transform="translate(551.000000, 76.000000)">
                <circle id="Oval-8-Copy-4" fill="url(#linearGradient-1)" cx="24" cy="24" r="24"></circle>
                <g id="Shape" fill-rule="nonzero">
                    <use fill="black" fill-opacity="1" filter="url(#filter-4)" xlink:href="#path-3"></use>
                    <use fill="url(#linearGradient-2)" fill-rule="evenodd" xlink:href="#path-3"></use>
                </g>
            </g>
        </g>
    </g>
</svg>