<?xml version="1.0" encoding="UTF-8"?>
<svg width="28px" height="29px" viewBox="0 0 28 29" version="1.1" xmlns="http://www.w3.org/2000/svg" xmlns:xlink="http://www.w3.org/1999/xlink">
    <!-- Generator: Sketch 46.1 (44463) - http://www.bohemiancoding.com/sketch -->
    <title>yonghu</title>
    <desc>Created with Sketch.</desc>
    <defs></defs>
    <g id="微信公众号" stroke="none" stroke-width="1" fill="none" fill-rule="evenodd">
        <g id="切图" transform="translate(-617.000000, -32.000000)" fill-rule="nonzero" fill="#CCCCCC">
            <path d="M644.738344,58.252175 C644.738344,58.252175 643.840338,56.2861619 640.692317,52.0081333 C639.880312,50.904126 638.838305,49.5981173 637.742298,48.2681084 C635.944286,49.9061193 633.58627,50.910126 631.000253,50.910126 C628.404235,50.910126 626.03822,49.8981193 624.236208,48.2481083 C623.1342,49.5841172 622.088193,50.8981259 621.270188,52.0081333 C618.120167,56.2881619 617.224161,58.252175 617.224161,58.252175 C616.682157,59.4781831 617.14616,60.6841912 618.366168,60.6841912 L643.596337,60.6841912 C644.816345,60.6841912 645.366348,59.3561823 644.738344,58.252175 Z M631.000253,48.8761125 C635.534283,48.8761125 639.208307,45.0980873 639.208307,40.4380562 C639.208307,35.7780252 635.532283,32 631.000253,32 C626.466222,32 622.792198,35.7780252 622.792198,40.4380562 C622.792198,45.0980873 626.466222,48.8761125 631.000253,48.8761125 Z" id="yonghu"></path>
        </g>
    </g>
</svg>