<?xml version="1.0" encoding="UTF-8"?>
<svg width="762px" height="4px" viewBox="0 0 762 4" version="1.1" xmlns="http://www.w3.org/2000/svg" xmlns:xlink="http://www.w3.org/1999/xlink">
    <!-- Generator: Sketch 46.1 (44463) - http://www.bohemiancoding.com/sketch -->
    <title>youchuo</title>
    <desc>Created with Sketch.</desc>
    <defs></defs>
    <g id="微信公众号" stroke="none" stroke-width="1" fill="none" fill-rule="evenodd">
        <g id="切图" transform="translate(-42.000000, -543.000000)">
            <g id="youchuo" transform="translate(423.000000, 545.000000) scale(-1, 1) translate(-423.000000, -545.000000) translate(42.000000, 543.000000)">
                <polygon id="Rectangle" fill="#F6AE39" points="0 0 26 0 34 4 8 4"></polygon>
                <polygon id="Rectangle-Copy" fill="#4A90E2" points="52 0 78 0 86 4 60 4"></polygon>
                <polygon id="Rectangle" fill="#FFFFFF" points="26 0 52 0 60 4 34 4"></polygon>
                <polygon id="Rectangle-Copy-3" fill="#FFFFFF" points="78 0 104 0 112 4 86 4"></polygon>
                <polygon id="Rectangle-Copy-5" fill="#F6AE39" points="104 0 130 0 138 4 112 4"></polygon>
                <polygon id="Rectangle-Copy-4" fill="#FFFFFF" points="130 0 156 0 164 4 138 4"></polygon>
                <polygon id="Rectangle-Copy-7" fill="#4A90E2" points="156 0 182 0 190 4 164 4"></polygon>
                <polygon id="Rectangle-Copy-6" fill="#FFFFFF" points="182 0 208 0 216 4 190 4"></polygon>
                <polygon id="Rectangle-Copy-9" fill="#F6AE39" points="208 0 234 0 242 4 216 4"></polygon>
                <polygon id="Rectangle-Copy-8" fill="#FFFFFF" points="234 0 260 0 268 4 242 4"></polygon>
                <polygon id="Rectangle-Copy-11" fill="#4A90E2" points="260 0 286 0 294 4 268 4"></polygon>
                <polygon id="Rectangle-Copy-10" fill="#FFFFFF" points="286 0 312 0 320 4 294 4"></polygon>
                <polygon id="Rectangle-Copy-13" fill="#F6AE39" points="312 0 338 0 346 4 320 4"></polygon>
                <polygon id="Rectangle-Copy-12" fill="#FFFFFF" points="338 0 364 0 372 4 346 4"></polygon>
                <polygon id="Rectangle-Copy-15" fill="#4A90E2" points="364 0 390 0 398 4 372 4"></polygon>
                <polygon id="Rectangle-Copy-14" fill="#FFFFFF" points="390 0 416 0 424 4 398 4"></polygon>
                <polygon id="Rectangle-Copy-17" fill="#F6AE39" points="416 0 442 0 450 4 424 4"></polygon>
                <polygon id="Rectangle-Copy-16" fill="#FFFFFF" points="442 0 468 0 476 4 450 4"></polygon>
                <polygon id="Rectangle-Copy-19" fill="#4A90E2" points="468 0 494 0 502 4 476 4"></polygon>
                <polygon id="Rectangle-Copy-18" fill="#FFFFFF" points="494 0 520 0 528 4 502 4"></polygon>
                <polygon id="Rectangle-Copy-21" fill="#F6AE39" points="520 0 546 0 554 4 528 4"></polygon>
                <polygon id="Rectangle-Copy-20" fill="#FFFFFF" points="546 0 572 0 580 4 554 4"></polygon>
                <polygon id="Rectangle-Copy-23" fill="#4A90E2" points="572 0 598 0 606 4 580 4"></polygon>
                <polygon id="Rectangle-Copy-22" fill="#FFFFFF" points="598 0 624 0 632 4 606 4"></polygon>
                <polygon id="Rectangle-Copy-25" fill="#F6AE39" points="624 0 650 0 658 4 632 4"></polygon>
                <polygon id="Rectangle-Copy-24" fill="#FFFFFF" points="650 0 676 0 684 4 658 4"></polygon>
                <polygon id="Rectangle-Copy-27" fill="#4A90E2" points="676 0 702 0 710 4 684 4"></polygon>
                <polygon id="Rectangle-Copy-26" fill="#FFFFFF" points="702 0 728 0 736 4 710 4"></polygon>
                <polygon id="Rectangle-Copy-29" fill="#F6AE39" points="728 0 754 0 762 4 736 4"></polygon>
            </g>
        </g>
    </g>
</svg>